<?xml version="1.0" encoding="UTF-8" standalone="no"?>
<!-- Created with Digital by H.Neemann -->
<!-- created: Sat Jan 24 22:21:30 PST 2026 -->

<svg
   xmlns:svg="http://www.w3.org/2000/svg"
   xmlns="http://www.w3.org/2000/svg"
   width="112.2mm"
   height="228.15mm"
   viewBox="698 -362 748 1521">
<g stroke-linecap="square">
<path d="M 960,560 L 960,640 L 1060,640 L 1060,620" stroke="#0000b2" stroke-width="4.0" fill="none"/>
<path d="M 1320,260 L 1360,260" stroke="#0000b2" stroke-width="4.0" fill="none"/>
<path d="M 1080,-200 L 1300,-200 L 1300,260" stroke="#0000b2" stroke-width="4.0" fill="none"/>
<path d="M 1080,840 L 1260,840 L 1260,520 L 1300,520" stroke="#0000b2" stroke-width="4.0" fill="none"/>
<path d="M 1080,520 L 1180,520 L 1180,440 L 1300,440" stroke="#0000b2" stroke-width="4.0" fill="none"/>
<path d="M 1080,200 L 1200,200 L 1200,360 L 1300,360" stroke="#0000b2" stroke-width="4.0" fill="none"/>
<path d="M 760,460 L 800,460" stroke="#0000b2" stroke-width="4.0" fill="none"/>
<path d="M 960,320 L 960,400 L 1060,400 L 1060,380" stroke="#0000b2" stroke-width="4.0" fill="none"/>
<path d="M 1080,920 L 1280,920 L 1280,540 L 1300,540" stroke="#0000b2" stroke-width="4.0" fill="none"/>
<path d="M 1080,600 L 1200,600 L 1200,460 L 1300,460" stroke="#0000b2" stroke-width="4.0" fill="none"/>
<path d="M 1080,280 L 1180,280 L 1180,380 L 1300,380" stroke="#0000b2" stroke-width="4.0" fill="none"/>
<path d="M 960,80 L 960,160 L 1060,160 L 1060,140" stroke="#0000b2" stroke-width="4.0" fill="none"/>
<path d="M 1080,-40 L 1260,-40 L 1260,300 L 1300,300" stroke="#0000b2" stroke-width="4.0" fill="none"/>
<path d="M 760,40 L 800,40" stroke="#0000b2" stroke-width="4.0" fill="none"/>
<path d="M 1080,40 L 1240,40 L 1240,320 L 1300,320" stroke="#0000b2" stroke-width="4.0" fill="none"/>
<path d="M 1080,1000 L 1300,1000 L 1300,560" stroke="#0000b2" stroke-width="4.0" fill="none"/>
<path d="M 1080,680 L 1220,680 L 1220,480 L 1300,480" stroke="#0000b2" stroke-width="4.0" fill="none"/>
<path d="M 1080,360 L 1160,360 L 1160,400 L 1300,400" stroke="#0000b2" stroke-width="4.0" fill="none"/>
<path d="M 960,800 L 960,880 L 1060,880 L 1060,860" stroke="#0000b2" stroke-width="4.0" fill="none"/>
<path d="M 1080,-120 L 1280,-120 L 1280,280 L 1300,280" stroke="#0000b2" stroke-width="4.0" fill="none"/>
<path d="M 1080,760 L 1240,760 L 1240,500 L 1300,500" stroke="#0000b2" stroke-width="4.0" fill="none"/>
<path d="M 1080,440 L 1160,440 L 1160,420 L 1300,420" stroke="#0000b2" stroke-width="4.0" fill="none"/>
<path d="M 1080,120 L 1220,120 L 1220,340 L 1300,340" stroke="#0000b2" stroke-width="4.0" fill="none"/>
<path d="M 1060,-100 L 1060,-80 L 960,-80 L 960,-160 L 1060,-160 L 1060,-180" stroke="#0000b2" stroke-width="4.0" fill="none"/>
<path d="M 1060,940 L 1060,960 L 960,960 L 960,1040 L 1060,1040 L 1060,1020" stroke="#0000b2" stroke-width="4.0" fill="none"/>
<path d="M 1060,700 L 1060,720 L 960,720 L 960,800 L 1060,800 L 1060,780" stroke="#0000b2" stroke-width="4.0" fill="none"/>
<path d="M 1060,460 L 1060,480 L 960,480 L 960,560 L 1060,560 L 1060,540" stroke="#0000b2" stroke-width="4.0" fill="none"/>
<path d="M 1060,300 L 1060,320 L 960,320 L 960,240 L 1060,240 L 1060,220" stroke="#0000b2" stroke-width="4.0" fill="none"/>
<path d="M 1060,-20 L 1060,0 L 960,0 L 960,80 L 1060,80 L 1060,60" stroke="#0000b2" stroke-width="4.0" fill="none"/>
<path d="M 960,1040 L 960,1080" stroke="#0000b2" stroke-width="4.0" fill="none"/>
<path d="M 960,880 L 960,960" stroke="#0000b2" stroke-width="4.0" fill="none"/>
<path d="M 960,640 L 960,720" stroke="#0000b2" stroke-width="4.0" fill="none"/>
<path d="M 960,400 L 960,480" stroke="#0000b2" stroke-width="4.0" fill="none"/>
<path d="M 960,160 L 960,240" stroke="#0000b2" stroke-width="4.0" fill="none"/>
<path d="M 960,-80 L 960,0" stroke="#0000b2" stroke-width="4.0" fill="none"/>
<path d="M 800,460 L 810,460 L 820,460" stroke="#000000" stroke-width="4.0" fill="none"/>
<path d="M 820,480 L 810,480" stroke="#000000" stroke-width="4.0" fill="none"/>
<path d="M 820,500 L 810,500" stroke="#000000" stroke-width="4.0" fill="none"/>
<path d="M 820,520 L 810,520" stroke="#000000" stroke-width="4.0" fill="none"/>
<path d="M 820,540 L 810,540" stroke="#000000" stroke-width="4.0" fill="none"/>
<path d="M 820,560 L 810,560" stroke="#000000" stroke-width="4.0" fill="none"/>
<path d="M 820,580 L 810,580" stroke="#000000" stroke-width="4.0" fill="none"/>
<path d="M 820,600 L 810,600" stroke="#000000" stroke-width="4.0" fill="none"/>
<path d="M 820,620 L 810,620" stroke="#000000" stroke-width="4.0" fill="none"/>
<path d="M 820,640 L 810,640" stroke="#000000" stroke-width="4.0" fill="none"/>
<path d="M 820,660 L 810,660" stroke="#000000" stroke-width="4.0" fill="none"/>
<path d="M 820,680 L 810,680" stroke="#000000" stroke-width="4.0" fill="none"/>
<path d="M 820,700 L 810,700" stroke="#000000" stroke-width="4.0" fill="none"/>
<path d="M 820,720 L 810,720" stroke="#000000" stroke-width="4.0" fill="none"/>
<path d="M 820,740 L 810,740" stroke="#000000" stroke-width="4.0" fill="none"/>
<path d="M 820,760 L 810,760" stroke="#000000" stroke-width="4.0" fill="none"/>
<path d="M 800,40 L 810,40 L 820,40" stroke="#000000" stroke-width="4.0" fill="none"/>
<path d="M 820,60 L 810,60" stroke="#000000" stroke-width="4.0" fill="none"/>
<path d="M 820,80 L 810,80" stroke="#000000" stroke-width="4.0" fill="none"/>
<path d="M 820,100 L 810,100" stroke="#000000" stroke-width="4.0" fill="none"/>
<path d="M 820,120 L 810,120" stroke="#000000" stroke-width="4.0" fill="none"/>
<path d="M 820,140 L 810,140" stroke="#000000" stroke-width="4.0" fill="none"/>
<path d="M 820,160 L 810,160" stroke="#000000" stroke-width="4.0" fill="none"/>
<path d="M 820,180 L 810,180" stroke="#000000" stroke-width="4.0" fill="none"/>
<path d="M 820,200 L 810,200" stroke="#000000" stroke-width="4.0" fill="none"/>
<path d="M 820,220 L 810,220" stroke="#000000" stroke-width="4.0" fill="none"/>
<path d="M 820,240 L 810,240" stroke="#000000" stroke-width="4.0" fill="none"/>
<path d="M 820,260 L 810,260" stroke="#000000" stroke-width="4.0" fill="none"/>
<path d="M 820,280 L 810,280" stroke="#000000" stroke-width="4.0" fill="none"/>
<path d="M 820,300 L 810,300" stroke="#000000" stroke-width="4.0" fill="none"/>
<path d="M 820,320 L 810,320" stroke="#000000" stroke-width="4.0" fill="none"/>
<path d="M 820,340 L 810,340" stroke="#000000" stroke-width="4.0" fill="none"/>
<path d="M 1300,260 L 1310,260 L 1320,260" stroke="#000000" stroke-width="4.0" fill="none"/>
<path d="M 1300,280 L 1310,280" stroke="#000000" stroke-width="4.0" fill="none"/>
<path d="M 1300,300 L 1310,300" stroke="#000000" stroke-width="4.0" fill="none"/>
<path d="M 1300,320 L 1310,320" stroke="#000000" stroke-width="4.0" fill="none"/>
<path d="M 1300,340 L 1310,340" stroke="#000000" stroke-width="4.0" fill="none"/>
<path d="M 1300,360 L 1310,360" stroke="#000000" stroke-width="4.0" fill="none"/>
<path d="M 1300,380 L 1310,380" stroke="#000000" stroke-width="4.0" fill="none"/>
<path d="M 1300,400 L 1310,400" stroke="#000000" stroke-width="4.0" fill="none"/>
<path d="M 1300,420 L 1310,420" stroke="#000000" stroke-width="4.0" fill="none"/>
<path d="M 1300,440 L 1310,440" stroke="#000000" stroke-width="4.0" fill="none"/>
<path d="M 1300,460 L 1310,460" stroke="#000000" stroke-width="4.0" fill="none"/>
<path d="M 1300,480 L 1310,480" stroke="#000000" stroke-width="4.0" fill="none"/>
<path d="M 1300,500 L 1310,500" stroke="#000000" stroke-width="4.0" fill="none"/>
<path d="M 1300,520 L 1310,520" stroke="#000000" stroke-width="4.0" fill="none"/>
<path d="M 1300,540 L 1310,540" stroke="#000000" stroke-width="4.0" fill="none"/>
<path d="M 1300,560 L 1310,560" stroke="#000000" stroke-width="4.0" fill="none"/>
<g>
<circle cx="960.0" cy="320.0" r="4.0" stroke="#0000b2" stroke-width="4.0" fill="#0000b2" />
<circle cx="960.0" cy="0.0" r="4.0" stroke="#0000b2" stroke-width="4.0" fill="#0000b2" />
<circle cx="960.0" cy="640.0" r="4.0" stroke="#0000b2" stroke-width="4.0" fill="#0000b2" />
<circle cx="960.0" cy="960.0" r="4.0" stroke="#0000b2" stroke-width="4.0" fill="#0000b2" />
<circle cx="960.0" cy="-80.0" r="4.0" stroke="#0000b2" stroke-width="4.0" fill="#0000b2" />
<circle cx="960.0" cy="400.0" r="4.0" stroke="#0000b2" stroke-width="4.0" fill="#0000b2" />
<circle cx="960.0" cy="80.0" r="4.0" stroke="#0000b2" stroke-width="4.0" fill="#0000b2" />
<circle cx="960.0" cy="720.0" r="4.0" stroke="#0000b2" stroke-width="4.0" fill="#0000b2" />
<circle cx="960.0" cy="1040.0" r="4.0" stroke="#0000b2" stroke-width="4.0" fill="#0000b2" />
<circle cx="960.0" cy="480.0" r="4.0" stroke="#0000b2" stroke-width="4.0" fill="#0000b2" />
<circle cx="960.0" cy="160.0" r="4.0" stroke="#0000b2" stroke-width="4.0" fill="#0000b2" />
<circle cx="960.0" cy="800.0" r="4.0" stroke="#0000b2" stroke-width="4.0" fill="#0000b2" />
<circle cx="960.0" cy="240.0" r="4.0" stroke="#0000b2" stroke-width="4.0" fill="#0000b2" />
<circle cx="960.0" cy="560.0" r="4.0" stroke="#0000b2" stroke-width="4.0" fill="#0000b2" />
<circle cx="960.0" cy="880.0" r="4.0" stroke="#0000b2" stroke-width="4.0" fill="#0000b2" />
</g>
<g>
<circle cx="1376.0" cy="260.0" r="9.0" stroke="#000000" stroke-width="4.0" fill="none" />
<circle cx="1376.0" cy="260.0" r="15.0" stroke="#000000" stroke-width="4.0" fill="none" />
<text text-anchor="start" x="1405.0" y="269.0" fill="#000000" style="font-size:24px"><tspan style="font-style:italic;">out</tspan></text>
<circle cx="1360.0" cy="260.0" r="2.0" stroke="#0000b2" stroke-width="4.0" fill="#0000b2" />
</g>
<g>
<path d="M 729,445 L 759,445 L 759,475 L 729,475 Z" stroke="#000000" stroke-width="4.0" fill="none"/>
<circle cx="744.0" cy="460.0" r="9.0" stroke="#000000" stroke-width="4.0" fill="none" />
<text text-anchor="end" x="715.0" y="469.0" fill="#000000" style="font-size:24px"><tspan style="font-style:italic;">b</tspan></text>
<circle cx="760.0" cy="460.0" r="2.0" stroke="#b20000" stroke-width="4.0" fill="#b20000" />
</g>
<g>
<text text-anchor="end" x="798.0" y="457.0" fill="#808080" style="font-size:12px">0-15</text>
<text text-anchor="start" x="822.0" y="457.0" fill="#808080" style="font-size:12px">0</text>
<text text-anchor="start" x="822.0" y="477.0" fill="#808080" style="font-size:12px">1</text>
<text text-anchor="start" x="822.0" y="497.0" fill="#808080" style="font-size:12px">2</text>
<text text-anchor="start" x="822.0" y="517.0" fill="#808080" style="font-size:12px">3</text>
<text text-anchor="start" x="822.0" y="537.0" fill="#808080" style="font-size:12px">4</text>
<text text-anchor="start" x="822.0" y="557.0" fill="#808080" style="font-size:12px">5</text>
<text text-anchor="start" x="822.0" y="577.0" fill="#808080" style="font-size:12px">6</text>
<text text-anchor="start" x="822.0" y="597.0" fill="#808080" style="font-size:12px">7</text>
<text text-anchor="start" x="822.0" y="617.0" fill="#808080" style="font-size:12px">8</text>
<text text-anchor="start" x="822.0" y="637.0" fill="#808080" style="font-size:12px">9</text>
<text text-anchor="start" x="822.0" y="657.0" fill="#808080" style="font-size:12px">10</text>
<text text-anchor="start" x="822.0" y="677.0" fill="#808080" style="font-size:12px">11</text>
<text text-anchor="start" x="822.0" y="697.0" fill="#808080" style="font-size:12px">12</text>
<text text-anchor="start" x="822.0" y="717.0" fill="#808080" style="font-size:12px">13</text>
<text text-anchor="start" x="822.0" y="737.0" fill="#808080" style="font-size:12px">14</text>
<text text-anchor="start" x="822.0" y="757.0" fill="#808080" style="font-size:12px">15</text>
<path d="M 808,458 L 812,458 L 812,762 L 808,762 Z" stroke="#000000" stroke-width="4.0" fill="#000000" fill-opacity="1.0"/>
<circle cx="800.0" cy="460.0" r="2.0" stroke="#0000b2" stroke-width="4.0" fill="#0000b2" />
<circle cx="820.0" cy="460.0" r="2.0" stroke="#b20000" stroke-width="4.0" fill="#b20000" />
<circle cx="820.0" cy="480.0" r="2.0" stroke="#b20000" stroke-width="4.0" fill="#b20000" />
<circle cx="820.0" cy="500.0" r="2.0" stroke="#b20000" stroke-width="4.0" fill="#b20000" />
<circle cx="820.0" cy="520.0" r="2.0" stroke="#b20000" stroke-width="4.0" fill="#b20000" />
<circle cx="820.0" cy="540.0" r="2.0" stroke="#b20000" stroke-width="4.0" fill="#b20000" />
<circle cx="820.0" cy="560.0" r="2.0" stroke="#b20000" stroke-width="4.0" fill="#b20000" />
<circle cx="820.0" cy="580.0" r="2.0" stroke="#b20000" stroke-width="4.0" fill="#b20000" />
<circle cx="820.0" cy="600.0" r="2.0" stroke="#b20000" stroke-width="4.0" fill="#b20000" />
<circle cx="820.0" cy="620.0" r="2.0" stroke="#b20000" stroke-width="4.0" fill="#b20000" />
<circle cx="820.0" cy="640.0" r="2.0" stroke="#b20000" stroke-width="4.0" fill="#b20000" />
<circle cx="820.0" cy="660.0" r="2.0" stroke="#b20000" stroke-width="4.0" fill="#b20000" />
<circle cx="820.0" cy="680.0" r="2.0" stroke="#b20000" stroke-width="4.0" fill="#b20000" />
<circle cx="820.0" cy="700.0" r="2.0" stroke="#b20000" stroke-width="4.0" fill="#b20000" />
<circle cx="820.0" cy="720.0" r="2.0" stroke="#b20000" stroke-width="4.0" fill="#b20000" />
<circle cx="820.0" cy="740.0" r="2.0" stroke="#b20000" stroke-width="4.0" fill="#b20000" />
<circle cx="820.0" cy="760.0" r="2.0" stroke="#b20000" stroke-width="4.0" fill="#b20000" />
</g>
<g>
<path d="M 729,25 L 759,25 L 759,55 L 729,55 Z" stroke="#000000" stroke-width="4.0" fill="none"/>
<circle cx="744.0" cy="40.0" r="9.0" stroke="#000000" stroke-width="4.0" fill="none" />
<text text-anchor="end" x="715.0" y="49.0" fill="#000000" style="font-size:24px"><tspan style="font-style:italic;">a</tspan></text>
<circle cx="760.0" cy="40.0" r="2.0" stroke="#b20000" stroke-width="4.0" fill="#b20000" />
</g>
<g>
<text text-anchor="end" x="798.0" y="37.0" fill="#808080" style="font-size:12px">0-15</text>
<text text-anchor="start" x="822.0" y="37.0" fill="#808080" style="font-size:12px">0</text>
<text text-anchor="start" x="822.0" y="57.0" fill="#808080" style="font-size:12px">1</text>
<text text-anchor="start" x="822.0" y="77.0" fill="#808080" style="font-size:12px">2</text>
<text text-anchor="start" x="822.0" y="97.0" fill="#808080" style="font-size:12px">3</text>
<text text-anchor="start" x="822.0" y="117.0" fill="#808080" style="font-size:12px">4</text>
<text text-anchor="start" x="822.0" y="137.0" fill="#808080" style="font-size:12px">5</text>
<text text-anchor="start" x="822.0" y="157.0" fill="#808080" style="font-size:12px">6</text>
<text text-anchor="start" x="822.0" y="177.0" fill="#808080" style="font-size:12px">7</text>
<text text-anchor="start" x="822.0" y="197.0" fill="#808080" style="font-size:12px">8</text>
<text text-anchor="start" x="822.0" y="217.0" fill="#808080" style="font-size:12px">9</text>
<text text-anchor="start" x="822.0" y="237.0" fill="#808080" style="font-size:12px">10</text>
<text text-anchor="start" x="822.0" y="257.0" fill="#808080" style="font-size:12px">11</text>
<text text-anchor="start" x="822.0" y="277.0" fill="#808080" style="font-size:12px">12</text>
<text text-anchor="start" x="822.0" y="297.0" fill="#808080" style="font-size:12px">13</text>
<text text-anchor="start" x="822.0" y="317.0" fill="#808080" style="font-size:12px">14</text>
<text text-anchor="start" x="822.0" y="337.0" fill="#808080" style="font-size:12px">15</text>
<path d="M 808,38 L 812,38 L 812,342 L 808,342 Z" stroke="#000000" stroke-width="4.0" fill="#000000" fill-opacity="1.0"/>
<circle cx="800.0" cy="40.0" r="2.0" stroke="#0000b2" stroke-width="4.0" fill="#0000b2" />
<circle cx="820.0" cy="40.0" r="2.0" stroke="#b20000" stroke-width="4.0" fill="#b20000" />
<circle cx="820.0" cy="60.0" r="2.0" stroke="#b20000" stroke-width="4.0" fill="#b20000" />
<circle cx="820.0" cy="80.0" r="2.0" stroke="#b20000" stroke-width="4.0" fill="#b20000" />
<circle cx="820.0" cy="100.0" r="2.0" stroke="#b20000" stroke-width="4.0" fill="#b20000" />
<circle cx="820.0" cy="120.0" r="2.0" stroke="#b20000" stroke-width="4.0" fill="#b20000" />
<circle cx="820.0" cy="140.0" r="2.0" stroke="#b20000" stroke-width="4.0" fill="#b20000" />
<circle cx="820.0" cy="160.0" r="2.0" stroke="#b20000" stroke-width="4.0" fill="#b20000" />
<circle cx="820.0" cy="180.0" r="2.0" stroke="#b20000" stroke-width="4.0" fill="#b20000" />
<circle cx="820.0" cy="200.0" r="2.0" stroke="#b20000" stroke-width="4.0" fill="#b20000" />
<circle cx="820.0" cy="220.0" r="2.0" stroke="#b20000" stroke-width="4.0" fill="#b20000" />
<circle cx="820.0" cy="240.0" r="2.0" stroke="#b20000" stroke-width="4.0" fill="#b20000" />
<circle cx="820.0" cy="260.0" r="2.0" stroke="#b20000" stroke-width="4.0" fill="#b20000" />
<circle cx="820.0" cy="280.0" r="2.0" stroke="#b20000" stroke-width="4.0" fill="#b20000" />
<circle cx="820.0" cy="300.0" r="2.0" stroke="#b20000" stroke-width="4.0" fill="#b20000" />
<circle cx="820.0" cy="320.0" r="2.0" stroke="#b20000" stroke-width="4.0" fill="#b20000" />
<circle cx="820.0" cy="340.0" r="2.0" stroke="#b20000" stroke-width="4.0" fill="#b20000" />
</g>
<g>
<path d="M 820,40 L 834,48 L 834,32 Z" stroke="#000000" stroke-width="4.0" fill="none"/>
<text text-anchor="start" x="839.0" y="46.75" fill="#808080" style="font-size:18px">a0</text>
<circle cx="820.0" cy="40.0" r="2.0" stroke="#0000b2" stroke-width="4.0" fill="#0000b2" />
</g>
<g>
<path d="M 820,60 L 834,68 L 834,52 Z" stroke="#000000" stroke-width="4.0" fill="none"/>
<text text-anchor="start" x="839.0" y="66.75" fill="#808080" style="font-size:18px">a1</text>
<circle cx="820.0" cy="60.0" r="2.0" stroke="#0000b2" stroke-width="4.0" fill="#0000b2" />
</g>
<g>
<path d="M 820,80 L 834,88 L 834,72 Z" stroke="#000000" stroke-width="4.0" fill="none"/>
<text text-anchor="start" x="839.0" y="86.75" fill="#808080" style="font-size:18px">a2</text>
<circle cx="820.0" cy="80.0" r="2.0" stroke="#0000b2" stroke-width="4.0" fill="#0000b2" />
</g>
<g>
<path d="M 820,100 L 834,108 L 834,92 Z" stroke="#000000" stroke-width="4.0" fill="none"/>
<text text-anchor="start" x="839.0" y="106.75" fill="#808080" style="font-size:18px">a3</text>
<circle cx="820.0" cy="100.0" r="2.0" stroke="#0000b2" stroke-width="4.0" fill="#0000b2" />
</g>
<g>
<path d="M 820,120 L 834,128 L 834,112 Z" stroke="#000000" stroke-width="4.0" fill="none"/>
<text text-anchor="start" x="839.0" y="126.75" fill="#808080" style="font-size:18px">a4</text>
<circle cx="820.0" cy="120.0" r="2.0" stroke="#0000b2" stroke-width="4.0" fill="#0000b2" />
</g>
<g>
<path d="M 820,140 L 834,148 L 834,132 Z" stroke="#000000" stroke-width="4.0" fill="none"/>
<text text-anchor="start" x="839.0" y="146.75" fill="#808080" style="font-size:18px">a5</text>
<circle cx="820.0" cy="140.0" r="2.0" stroke="#0000b2" stroke-width="4.0" fill="#0000b2" />
</g>
<g>
<path d="M 820,160 L 834,168 L 834,152 Z" stroke="#000000" stroke-width="4.0" fill="none"/>
<text text-anchor="start" x="839.0" y="166.75" fill="#808080" style="font-size:18px">a6</text>
<circle cx="820.0" cy="160.0" r="2.0" stroke="#0000b2" stroke-width="4.0" fill="#0000b2" />
</g>
<g>
<path d="M 820,180 L 834,188 L 834,172 Z" stroke="#000000" stroke-width="4.0" fill="none"/>
<text text-anchor="start" x="839.0" y="186.75" fill="#808080" style="font-size:18px">a7</text>
<circle cx="820.0" cy="180.0" r="2.0" stroke="#0000b2" stroke-width="4.0" fill="#0000b2" />
</g>
<g>
<path d="M 820,200 L 834,208 L 834,192 Z" stroke="#000000" stroke-width="4.0" fill="none"/>
<text text-anchor="start" x="839.0" y="206.75" fill="#808080" style="font-size:18px">a8</text>
<circle cx="820.0" cy="200.0" r="2.0" stroke="#0000b2" stroke-width="4.0" fill="#0000b2" />
</g>
<g>
<path d="M 820,220 L 834,228 L 834,212 Z" stroke="#000000" stroke-width="4.0" fill="none"/>
<text text-anchor="start" x="839.0" y="226.75" fill="#808080" style="font-size:18px">a9</text>
<circle cx="820.0" cy="220.0" r="2.0" stroke="#0000b2" stroke-width="4.0" fill="#0000b2" />
</g>
<g>
<path d="M 820,240 L 834,248 L 834,232 Z" stroke="#000000" stroke-width="4.0" fill="none"/>
<text text-anchor="start" x="839.0" y="246.75" fill="#808080" style="font-size:18px">a10</text>
<circle cx="820.0" cy="240.0" r="2.0" stroke="#0000b2" stroke-width="4.0" fill="#0000b2" />
</g>
<g>
<path d="M 820,260 L 834,268 L 834,252 Z" stroke="#000000" stroke-width="4.0" fill="none"/>
<text text-anchor="start" x="839.0" y="266.75" fill="#808080" style="font-size:18px">a11</text>
<circle cx="820.0" cy="260.0" r="2.0" stroke="#0000b2" stroke-width="4.0" fill="#0000b2" />
</g>
<g>
<path d="M 820,280 L 834,288 L 834,272 Z" stroke="#000000" stroke-width="4.0" fill="none"/>
<text text-anchor="start" x="839.0" y="286.75" fill="#808080" style="font-size:18px">a12</text>
<circle cx="820.0" cy="280.0" r="2.0" stroke="#0000b2" stroke-width="4.0" fill="#0000b2" />
</g>
<g>
<path d="M 820,300 L 834,308 L 834,292 Z" stroke="#000000" stroke-width="4.0" fill="none"/>
<text text-anchor="start" x="839.0" y="306.75" fill="#808080" style="font-size:18px">a13</text>
<circle cx="820.0" cy="300.0" r="2.0" stroke="#0000b2" stroke-width="4.0" fill="#0000b2" />
</g>
<g>
<path d="M 820,320 L 834,328 L 834,312 Z" stroke="#000000" stroke-width="4.0" fill="none"/>
<text text-anchor="start" x="839.0" y="326.75" fill="#808080" style="font-size:18px">a14</text>
<circle cx="820.0" cy="320.0" r="2.0" stroke="#0000b2" stroke-width="4.0" fill="#0000b2" />
</g>
<g>
<path d="M 820,340 L 834,348 L 834,332 Z" stroke="#000000" stroke-width="4.0" fill="none"/>
<text text-anchor="start" x="839.0" y="346.75" fill="#808080" style="font-size:18px">a15</text>
<circle cx="820.0" cy="340.0" r="2.0" stroke="#0000b2" stroke-width="4.0" fill="#0000b2" />
</g>
<g>
<path d="M 820,460 L 834,468 L 834,452 Z" stroke="#000000" stroke-width="4.0" fill="none"/>
<text text-anchor="start" x="839.0" y="466.75" fill="#808080" style="font-size:18px">b0</text>
<circle cx="820.0" cy="460.0" r="2.0" stroke="#0000b2" stroke-width="4.0" fill="#0000b2" />
</g>
<g>
<path d="M 820,480 L 834,488 L 834,472 Z" stroke="#000000" stroke-width="4.0" fill="none"/>
<text text-anchor="start" x="839.0" y="486.75" fill="#808080" style="font-size:18px">b1</text>
<circle cx="820.0" cy="480.0" r="2.0" stroke="#0000b2" stroke-width="4.0" fill="#0000b2" />
</g>
<g>
<path d="M 820,500 L 834,508 L 834,492 Z" stroke="#000000" stroke-width="4.0" fill="none"/>
<text text-anchor="start" x="839.0" y="506.75" fill="#808080" style="font-size:18px">b2</text>
<circle cx="820.0" cy="500.0" r="2.0" stroke="#0000b2" stroke-width="4.0" fill="#0000b2" />
</g>
<g>
<path d="M 820,520 L 834,528 L 834,512 Z" stroke="#000000" stroke-width="4.0" fill="none"/>
<text text-anchor="start" x="839.0" y="526.75" fill="#808080" style="font-size:18px">b3</text>
<circle cx="820.0" cy="520.0" r="2.0" stroke="#0000b2" stroke-width="4.0" fill="#0000b2" />
</g>
<g>
<path d="M 820,540 L 834,548 L 834,532 Z" stroke="#000000" stroke-width="4.0" fill="none"/>
<text text-anchor="start" x="839.0" y="546.75" fill="#808080" style="font-size:18px">b4</text>
<circle cx="820.0" cy="540.0" r="2.0" stroke="#0000b2" stroke-width="4.0" fill="#0000b2" />
</g>
<g>
<path d="M 820,560 L 834,568 L 834,552 Z" stroke="#000000" stroke-width="4.0" fill="none"/>
<text text-anchor="start" x="839.0" y="566.75" fill="#808080" style="font-size:18px">b5</text>
<circle cx="820.0" cy="560.0" r="2.0" stroke="#0000b2" stroke-width="4.0" fill="#0000b2" />
</g>
<g>
<path d="M 820,580 L 834,588 L 834,572 Z" stroke="#000000" stroke-width="4.0" fill="none"/>
<text text-anchor="start" x="839.0" y="586.75" fill="#808080" style="font-size:18px">b6</text>
<circle cx="820.0" cy="580.0" r="2.0" stroke="#0000b2" stroke-width="4.0" fill="#0000b2" />
</g>
<g>
<path d="M 820,600 L 834,608 L 834,592 Z" stroke="#000000" stroke-width="4.0" fill="none"/>
<text text-anchor="start" x="839.0" y="606.75" fill="#808080" style="font-size:18px">b7</text>
<circle cx="820.0" cy="600.0" r="2.0" stroke="#0000b2" stroke-width="4.0" fill="#0000b2" />
</g>
<g>
<path d="M 820,620 L 834,628 L 834,612 Z" stroke="#000000" stroke-width="4.0" fill="none"/>
<text text-anchor="start" x="839.0" y="626.75" fill="#808080" style="font-size:18px">b8</text>
<circle cx="820.0" cy="620.0" r="2.0" stroke="#0000b2" stroke-width="4.0" fill="#0000b2" />
</g>
<g>
<path d="M 820,640 L 834,648 L 834,632 Z" stroke="#000000" stroke-width="4.0" fill="none"/>
<text text-anchor="start" x="839.0" y="646.75" fill="#808080" style="font-size:18px">b9</text>
<circle cx="820.0" cy="640.0" r="2.0" stroke="#0000b2" stroke-width="4.0" fill="#0000b2" />
</g>
<g>
<path d="M 820,660 L 834,668 L 834,652 Z" stroke="#000000" stroke-width="4.0" fill="none"/>
<text text-anchor="start" x="839.0" y="666.75" fill="#808080" style="font-size:18px">b10</text>
<circle cx="820.0" cy="660.0" r="2.0" stroke="#0000b2" stroke-width="4.0" fill="#0000b2" />
</g>
<g>
<path d="M 820,680 L 834,688 L 834,672 Z" stroke="#000000" stroke-width="4.0" fill="none"/>
<text text-anchor="start" x="839.0" y="686.75" fill="#808080" style="font-size:18px">b11</text>
<circle cx="820.0" cy="680.0" r="2.0" stroke="#0000b2" stroke-width="4.0" fill="#0000b2" />
</g>
<g>
<path d="M 820,700 L 834,708 L 834,692 Z" stroke="#000000" stroke-width="4.0" fill="none"/>
<text text-anchor="start" x="839.0" y="706.75" fill="#808080" style="font-size:18px">b12</text>
<circle cx="820.0" cy="700.0" r="2.0" stroke="#0000b2" stroke-width="4.0" fill="#0000b2" />
</g>
<g>
<path d="M 820,720 L 834,728 L 834,712 Z" stroke="#000000" stroke-width="4.0" fill="none"/>
<text text-anchor="start" x="839.0" y="726.75" fill="#808080" style="font-size:18px">b13</text>
<circle cx="820.0" cy="720.0" r="2.0" stroke="#0000b2" stroke-width="4.0" fill="#0000b2" />
</g>
<g>
<path d="M 820,740 L 834,748 L 834,732 Z" stroke="#000000" stroke-width="4.0" fill="none"/>
<text text-anchor="start" x="839.0" y="746.75" fill="#808080" style="font-size:18px">b14</text>
<circle cx="820.0" cy="740.0" r="2.0" stroke="#0000b2" stroke-width="4.0" fill="#0000b2" />
</g>
<g>
<path d="M 820,760 L 834,768 L 834,752 Z" stroke="#000000" stroke-width="4.0" fill="none"/>
<text text-anchor="start" x="839.0" y="766.75" fill="#808080" style="font-size:18px">b15</text>
<circle cx="820.0" cy="760.0" r="2.0" stroke="#0000b2" stroke-width="4.0" fill="#0000b2" />
</g>
<g>
<path d="M 1040,-220 L 1026,-228 L 1026,-212 Z" stroke="#000000" stroke-width="4.0" fill="none"/>
<text text-anchor="end" x="1021.0" y="-213.25" fill="#808080" style="font-size:18px">a0</text>
<circle cx="1040.0" cy="-220.0" r="2.0" stroke="#0000b2" stroke-width="4.0" fill="#0000b2" />
</g>
<g>
<path d="M 1040,-140 L 1026,-148 L 1026,-132 Z" stroke="#000000" stroke-width="4.0" fill="none"/>
<text text-anchor="end" x="1021.0" y="-133.25" fill="#808080" style="font-size:18px">a1</text>
<circle cx="1040.0" cy="-140.0" r="2.0" stroke="#0000b2" stroke-width="4.0" fill="#0000b2" />
</g>
<g>
<path d="M 1040,-60 L 1026,-68 L 1026,-52 Z" stroke="#000000" stroke-width="4.0" fill="none"/>
<text text-anchor="end" x="1021.0" y="-53.25" fill="#808080" style="font-size:18px">a2</text>
<circle cx="1040.0" cy="-60.0" r="2.0" stroke="#0000b2" stroke-width="4.0" fill="#0000b2" />
</g>
<g>
<path d="M 1040,20 L 1026,12 L 1026,28 Z" stroke="#000000" stroke-width="4.0" fill="none"/>
<text text-anchor="end" x="1021.0" y="26.75" fill="#808080" style="font-size:18px">a3</text>
<circle cx="1040.0" cy="20.0" r="2.0" stroke="#0000b2" stroke-width="4.0" fill="#0000b2" />
</g>
<g>
<path d="M 1040,100 L 1026,92 L 1026,108 Z" stroke="#000000" stroke-width="4.0" fill="none"/>
<text text-anchor="end" x="1021.0" y="106.75" fill="#808080" style="font-size:18px">a4</text>
<circle cx="1040.0" cy="100.0" r="2.0" stroke="#0000b2" stroke-width="4.0" fill="#0000b2" />
</g>
<g>
<path d="M 1040,180 L 1026,172 L 1026,188 Z" stroke="#000000" stroke-width="4.0" fill="none"/>
<text text-anchor="end" x="1021.0" y="186.75" fill="#808080" style="font-size:18px">a5</text>
<circle cx="1040.0" cy="180.0" r="2.0" stroke="#0000b2" stroke-width="4.0" fill="#0000b2" />
</g>
<g>
<path d="M 1040,260 L 1026,252 L 1026,268 Z" stroke="#000000" stroke-width="4.0" fill="none"/>
<text text-anchor="end" x="1021.0" y="266.75" fill="#808080" style="font-size:18px">a6</text>
<circle cx="1040.0" cy="260.0" r="2.0" stroke="#0000b2" stroke-width="4.0" fill="#0000b2" />
</g>
<g>
<path d="M 1040,340 L 1026,332 L 1026,348 Z" stroke="#000000" stroke-width="4.0" fill="none"/>
<text text-anchor="end" x="1021.0" y="346.75" fill="#808080" style="font-size:18px">a7</text>
<circle cx="1040.0" cy="340.0" r="2.0" stroke="#0000b2" stroke-width="4.0" fill="#0000b2" />
</g>
<g>
<path d="M 1040,420 L 1026,412 L 1026,428 Z" stroke="#000000" stroke-width="4.0" fill="none"/>
<text text-anchor="end" x="1021.0" y="426.75" fill="#808080" style="font-size:18px">a8</text>
<circle cx="1040.0" cy="420.0" r="2.0" stroke="#0000b2" stroke-width="4.0" fill="#0000b2" />
</g>
<g>
<path d="M 1040,500 L 1026,492 L 1026,508 Z" stroke="#000000" stroke-width="4.0" fill="none"/>
<text text-anchor="end" x="1021.0" y="506.75" fill="#808080" style="font-size:18px">a9</text>
<circle cx="1040.0" cy="500.0" r="2.0" stroke="#0000b2" stroke-width="4.0" fill="#0000b2" />
</g>
<g>
<path d="M 1040,580 L 1026,572 L 1026,588 Z" stroke="#000000" stroke-width="4.0" fill="none"/>
<text text-anchor="end" x="1021.0" y="586.75" fill="#808080" style="font-size:18px">a10</text>
<circle cx="1040.0" cy="580.0" r="2.0" stroke="#0000b2" stroke-width="4.0" fill="#0000b2" />
</g>
<g>
<path d="M 1040,660 L 1026,652 L 1026,668 Z" stroke="#000000" stroke-width="4.0" fill="none"/>
<text text-anchor="end" x="1021.0" y="666.75" fill="#808080" style="font-size:18px">a11</text>
<circle cx="1040.0" cy="660.0" r="2.0" stroke="#0000b2" stroke-width="4.0" fill="#0000b2" />
</g>
<g>
<path d="M 1040,740 L 1026,732 L 1026,748 Z" stroke="#000000" stroke-width="4.0" fill="none"/>
<text text-anchor="end" x="1021.0" y="746.75" fill="#808080" style="font-size:18px">a12</text>
<circle cx="1040.0" cy="740.0" r="2.0" stroke="#0000b2" stroke-width="4.0" fill="#0000b2" />
</g>
<g>
<path d="M 1040,820 L 1026,812 L 1026,828 Z" stroke="#000000" stroke-width="4.0" fill="none"/>
<text text-anchor="end" x="1021.0" y="826.75" fill="#808080" style="font-size:18px">a13</text>
<circle cx="1040.0" cy="820.0" r="2.0" stroke="#0000b2" stroke-width="4.0" fill="#0000b2" />
</g>
<g>
<path d="M 1040,900 L 1026,892 L 1026,908 Z" stroke="#000000" stroke-width="4.0" fill="none"/>
<text text-anchor="end" x="1021.0" y="906.75" fill="#808080" style="font-size:18px">a14</text>
<circle cx="1040.0" cy="900.0" r="2.0" stroke="#0000b2" stroke-width="4.0" fill="#0000b2" />
</g>
<g>
<path d="M 1040,980 L 1026,972 L 1026,988 Z" stroke="#000000" stroke-width="4.0" fill="none"/>
<text text-anchor="end" x="1021.0" y="986.75" fill="#808080" style="font-size:18px">a15</text>
<circle cx="1040.0" cy="980.0" r="2.0" stroke="#0000b2" stroke-width="4.0" fill="#0000b2" />
</g>
<g>
<path d="M 1040,-180 L 1026,-188 L 1026,-172 Z" stroke="#000000" stroke-width="4.0" fill="none"/>
<text text-anchor="end" x="1021.0" y="-173.25" fill="#808080" style="font-size:18px">b0</text>
<circle cx="1040.0" cy="-180.0" r="2.0" stroke="#0000b2" stroke-width="4.0" fill="#0000b2" />
</g>
<g>
<path d="M 1040,-100 L 1026,-108 L 1026,-92 Z" stroke="#000000" stroke-width="4.0" fill="none"/>
<text text-anchor="end" x="1021.0" y="-93.25" fill="#808080" style="font-size:18px">b1</text>
<circle cx="1040.0" cy="-100.0" r="2.0" stroke="#0000b2" stroke-width="4.0" fill="#0000b2" />
</g>
<g>
<path d="M 1040,-20 L 1026,-28 L 1026,-12 Z" stroke="#000000" stroke-width="4.0" fill="none"/>
<text text-anchor="end" x="1021.0" y="-13.25" fill="#808080" style="font-size:18px">b2</text>
<circle cx="1040.0" cy="-20.0" r="2.0" stroke="#0000b2" stroke-width="4.0" fill="#0000b2" />
</g>
<g>
<path d="M 1040,60 L 1026,52 L 1026,68 Z" stroke="#000000" stroke-width="4.0" fill="none"/>
<text text-anchor="end" x="1021.0" y="66.75" fill="#808080" style="font-size:18px">b3</text>
<circle cx="1040.0" cy="60.0" r="2.0" stroke="#0000b2" stroke-width="4.0" fill="#0000b2" />
</g>
<g>
<path d="M 1040,140 L 1026,132 L 1026,148 Z" stroke="#000000" stroke-width="4.0" fill="none"/>
<text text-anchor="end" x="1021.0" y="146.75" fill="#808080" style="font-size:18px">b4</text>
<circle cx="1040.0" cy="140.0" r="2.0" stroke="#0000b2" stroke-width="4.0" fill="#0000b2" />
</g>
<g>
<path d="M 1040,220 L 1026,212 L 1026,228 Z" stroke="#000000" stroke-width="4.0" fill="none"/>
<text text-anchor="end" x="1021.0" y="226.75" fill="#808080" style="font-size:18px">b5</text>
<circle cx="1040.0" cy="220.0" r="2.0" stroke="#0000b2" stroke-width="4.0" fill="#0000b2" />
</g>
<g>
<path d="M 1040,300 L 1026,292 L 1026,308 Z" stroke="#000000" stroke-width="4.0" fill="none"/>
<text text-anchor="end" x="1021.0" y="306.75" fill="#808080" style="font-size:18px">b6</text>
<circle cx="1040.0" cy="300.0" r="2.0" stroke="#0000b2" stroke-width="4.0" fill="#0000b2" />
</g>
<g>
<path d="M 1040,380 L 1026,372 L 1026,388 Z" stroke="#000000" stroke-width="4.0" fill="none"/>
<text text-anchor="end" x="1021.0" y="386.75" fill="#808080" style="font-size:18px">b7</text>
<circle cx="1040.0" cy="380.0" r="2.0" stroke="#0000b2" stroke-width="4.0" fill="#0000b2" />
</g>
<g>
<path d="M 1040,460 L 1026,452 L 1026,468 Z" stroke="#000000" stroke-width="4.0" fill="none"/>
<text text-anchor="end" x="1021.0" y="466.75" fill="#808080" style="font-size:18px">b8</text>
<circle cx="1040.0" cy="460.0" r="2.0" stroke="#0000b2" stroke-width="4.0" fill="#0000b2" />
</g>
<g>
<path d="M 1040,540 L 1026,532 L 1026,548 Z" stroke="#000000" stroke-width="4.0" fill="none"/>
<text text-anchor="end" x="1021.0" y="546.75" fill="#808080" style="font-size:18px">b9</text>
<circle cx="1040.0" cy="540.0" r="2.0" stroke="#0000b2" stroke-width="4.0" fill="#0000b2" />
</g>
<g>
<path d="M 1040,620 L 1026,612 L 1026,628 Z" stroke="#000000" stroke-width="4.0" fill="none"/>
<text text-anchor="end" x="1021.0" y="626.75" fill="#808080" style="font-size:18px">b10</text>
<circle cx="1040.0" cy="620.0" r="2.0" stroke="#0000b2" stroke-width="4.0" fill="#0000b2" />
</g>
<g>
<path d="M 1040,700 L 1026,692 L 1026,708 Z" stroke="#000000" stroke-width="4.0" fill="none"/>
<text text-anchor="end" x="1021.0" y="706.75" fill="#808080" style="font-size:18px">b11</text>
<circle cx="1040.0" cy="700.0" r="2.0" stroke="#0000b2" stroke-width="4.0" fill="#0000b2" />
</g>
<g>
<path d="M 1040,780 L 1026,772 L 1026,788 Z" stroke="#000000" stroke-width="4.0" fill="none"/>
<text text-anchor="end" x="1021.0" y="786.75" fill="#808080" style="font-size:18px">b12</text>
<circle cx="1040.0" cy="780.0" r="2.0" stroke="#0000b2" stroke-width="4.0" fill="#0000b2" />
</g>
<g>
<path d="M 1040,860 L 1026,852 L 1026,868 Z" stroke="#000000" stroke-width="4.0" fill="none"/>
<text text-anchor="end" x="1021.0" y="866.75" fill="#808080" style="font-size:18px">b13</text>
<circle cx="1040.0" cy="860.0" r="2.0" stroke="#0000b2" stroke-width="4.0" fill="#0000b2" />
</g>
<g>
<path d="M 1040,940 L 1026,932 L 1026,948 Z" stroke="#000000" stroke-width="4.0" fill="none"/>
<text text-anchor="end" x="1021.0" y="946.75" fill="#808080" style="font-size:18px">b14</text>
<circle cx="1040.0" cy="940.0" r="2.0" stroke="#0000b2" stroke-width="4.0" fill="#0000b2" />
</g>
<g>
<path d="M 1040,1020 L 1026,1012 L 1026,1028 Z" stroke="#000000" stroke-width="4.0" fill="none"/>
<text text-anchor="end" x="1021.0" y="1026.75" fill="#808080" style="font-size:18px">b15</text>
<circle cx="1040.0" cy="1020.0" r="2.0" stroke="#0000b2" stroke-width="4.0" fill="#0000b2" />
</g>
<g>
<text text-anchor="end" x="1298.0" y="257.0" fill="#808080" style="font-size:12px">0</text>
<text text-anchor="end" x="1298.0" y="277.0" fill="#808080" style="font-size:12px">1</text>
<text text-anchor="end" x="1298.0" y="297.0" fill="#808080" style="font-size:12px">2</text>
<text text-anchor="end" x="1298.0" y="317.0" fill="#808080" style="font-size:12px">3</text>
<text text-anchor="end" x="1298.0" y="337.0" fill="#808080" style="font-size:12px">4</text>
<text text-anchor="end" x="1298.0" y="357.0" fill="#808080" style="font-size:12px">5</text>
<text text-anchor="end" x="1298.0" y="377.0" fill="#808080" style="font-size:12px">6</text>
<text text-anchor="end" x="1298.0" y="397.0" fill="#808080" style="font-size:12px">7</text>
<text text-anchor="end" x="1298.0" y="417.0" fill="#808080" style="font-size:12px">8</text>
<text text-anchor="end" x="1298.0" y="437.0" fill="#808080" style="font-size:12px">9</text>
<text text-anchor="end" x="1298.0" y="457.0" fill="#808080" style="font-size:12px">10</text>
<text text-anchor="end" x="1298.0" y="477.0" fill="#808080" style="font-size:12px">11</text>
<text text-anchor="end" x="1298.0" y="497.0" fill="#808080" style="font-size:12px">12</text>
<text text-anchor="end" x="1298.0" y="517.0" fill="#808080" style="font-size:12px">13</text>
<text text-anchor="end" x="1298.0" y="537.0" fill="#808080" style="font-size:12px">14</text>
<text text-anchor="end" x="1298.0" y="557.0" fill="#808080" style="font-size:12px">15</text>
<text text-anchor="start" x="1322.0" y="257.0" fill="#808080" style="font-size:12px">0-15</text>
<path d="M 1308,258 L 1312,258 L 1312,562 L 1308,562 Z" stroke="#000000" stroke-width="4.0" fill="#000000" fill-opacity="1.0"/>
<circle cx="1300.0" cy="260.0" r="2.0" stroke="#0000b2" stroke-width="4.0" fill="#0000b2" />
<circle cx="1300.0" cy="280.0" r="2.0" stroke="#0000b2" stroke-width="4.0" fill="#0000b2" />
<circle cx="1300.0" cy="300.0" r="2.0" stroke="#0000b2" stroke-width="4.0" fill="#0000b2" />
<circle cx="1300.0" cy="320.0" r="2.0" stroke="#0000b2" stroke-width="4.0" fill="#0000b2" />
<circle cx="1300.0" cy="340.0" r="2.0" stroke="#0000b2" stroke-width="4.0" fill="#0000b2" />
<circle cx="1300.0" cy="360.0" r="2.0" stroke="#0000b2" stroke-width="4.0" fill="#0000b2" />
<circle cx="1300.0" cy="380.0" r="2.0" stroke="#0000b2" stroke-width="4.0" fill="#0000b2" />
<circle cx="1300.0" cy="400.0" r="2.0" stroke="#0000b2" stroke-width="4.0" fill="#0000b2" />
<circle cx="1300.0" cy="420.0" r="2.0" stroke="#0000b2" stroke-width="4.0" fill="#0000b2" />
<circle cx="1300.0" cy="440.0" r="2.0" stroke="#0000b2" stroke-width="4.0" fill="#0000b2" />
<circle cx="1300.0" cy="460.0" r="2.0" stroke="#0000b2" stroke-width="4.0" fill="#0000b2" />
<circle cx="1300.0" cy="480.0" r="2.0" stroke="#0000b2" stroke-width="4.0" fill="#0000b2" />
<circle cx="1300.0" cy="500.0" r="2.0" stroke="#0000b2" stroke-width="4.0" fill="#0000b2" />
<circle cx="1300.0" cy="520.0" r="2.0" stroke="#0000b2" stroke-width="4.0" fill="#0000b2" />
<circle cx="1300.0" cy="540.0" r="2.0" stroke="#0000b2" stroke-width="4.0" fill="#0000b2" />
<circle cx="1300.0" cy="560.0" r="2.0" stroke="#0000b2" stroke-width="4.0" fill="#0000b2" />
<circle cx="1320.0" cy="260.0" r="2.0" stroke="#b20000" stroke-width="4.0" fill="#b20000" />
</g>
<g>
<text text-anchor="start" x="920.0" y="-333.0" fill="#000000" style="font-size:36px">10 - Mux16</text>
</g>
<g>
<path d="M 1041,-224 L 1079,-215 L 1079,-185 L 1041,-176 Z" stroke="#000000" stroke-width="4.0" fill="none"/>
<text text-anchor="start" x="1043.0" y="-204.5" fill="#808080" style="font-size:18px">0</text>
<circle cx="1060.0" cy="-180.0" r="2.0" stroke="#0000b2" stroke-width="4.0" fill="#0000b2" />
<circle cx="1040.0" cy="-220.0" r="2.0" stroke="#0000b2" stroke-width="4.0" fill="#0000b2" />
<circle cx="1040.0" cy="-180.0" r="2.0" stroke="#0000b2" stroke-width="4.0" fill="#0000b2" />
<circle cx="1080.0" cy="-200.0" r="2.0" stroke="#b20000" stroke-width="4.0" fill="#b20000" />
</g>
<g>
<path d="M 1041,-144 L 1079,-135 L 1079,-105 L 1041,-96 Z" stroke="#000000" stroke-width="4.0" fill="none"/>
<text text-anchor="start" x="1043.0" y="-124.5" fill="#808080" style="font-size:18px">0</text>
<circle cx="1060.0" cy="-100.0" r="2.0" stroke="#0000b2" stroke-width="4.0" fill="#0000b2" />
<circle cx="1040.0" cy="-140.0" r="2.0" stroke="#0000b2" stroke-width="4.0" fill="#0000b2" />
<circle cx="1040.0" cy="-100.0" r="2.0" stroke="#0000b2" stroke-width="4.0" fill="#0000b2" />
<circle cx="1080.0" cy="-120.0" r="2.0" stroke="#b20000" stroke-width="4.0" fill="#b20000" />
</g>
<g>
<path d="M 1041,-64 L 1079,-55 L 1079,-25 L 1041,-16 Z" stroke="#000000" stroke-width="4.0" fill="none"/>
<text text-anchor="start" x="1043.0" y="-44.5" fill="#808080" style="font-size:18px">0</text>
<circle cx="1060.0" cy="-20.0" r="2.0" stroke="#0000b2" stroke-width="4.0" fill="#0000b2" />
<circle cx="1040.0" cy="-60.0" r="2.0" stroke="#0000b2" stroke-width="4.0" fill="#0000b2" />
<circle cx="1040.0" cy="-20.0" r="2.0" stroke="#0000b2" stroke-width="4.0" fill="#0000b2" />
<circle cx="1080.0" cy="-40.0" r="2.0" stroke="#b20000" stroke-width="4.0" fill="#b20000" />
</g>
<g>
<path d="M 1041,16 L 1079,25 L 1079,55 L 1041,64 Z" stroke="#000000" stroke-width="4.0" fill="none"/>
<text text-anchor="start" x="1043.0" y="35.5" fill="#808080" style="font-size:18px">0</text>
<circle cx="1060.0" cy="60.0" r="2.0" stroke="#0000b2" stroke-width="4.0" fill="#0000b2" />
<circle cx="1040.0" cy="20.0" r="2.0" stroke="#0000b2" stroke-width="4.0" fill="#0000b2" />
<circle cx="1040.0" cy="60.0" r="2.0" stroke="#0000b2" stroke-width="4.0" fill="#0000b2" />
<circle cx="1080.0" cy="40.0" r="2.0" stroke="#b20000" stroke-width="4.0" fill="#b20000" />
</g>
<g>
<path d="M 1041,96 L 1079,105 L 1079,135 L 1041,144 Z" stroke="#000000" stroke-width="4.0" fill="none"/>
<text text-anchor="start" x="1043.0" y="115.5" fill="#808080" style="font-size:18px">0</text>
<circle cx="1060.0" cy="140.0" r="2.0" stroke="#0000b2" stroke-width="4.0" fill="#0000b2" />
<circle cx="1040.0" cy="100.0" r="2.0" stroke="#0000b2" stroke-width="4.0" fill="#0000b2" />
<circle cx="1040.0" cy="140.0" r="2.0" stroke="#0000b2" stroke-width="4.0" fill="#0000b2" />
<circle cx="1080.0" cy="120.0" r="2.0" stroke="#b20000" stroke-width="4.0" fill="#b20000" />
</g>
<g>
<path d="M 1041,176 L 1079,185 L 1079,215 L 1041,224 Z" stroke="#000000" stroke-width="4.0" fill="none"/>
<text text-anchor="start" x="1043.0" y="195.5" fill="#808080" style="font-size:18px">0</text>
<circle cx="1060.0" cy="220.0" r="2.0" stroke="#0000b2" stroke-width="4.0" fill="#0000b2" />
<circle cx="1040.0" cy="180.0" r="2.0" stroke="#0000b2" stroke-width="4.0" fill="#0000b2" />
<circle cx="1040.0" cy="220.0" r="2.0" stroke="#0000b2" stroke-width="4.0" fill="#0000b2" />
<circle cx="1080.0" cy="200.0" r="2.0" stroke="#b20000" stroke-width="4.0" fill="#b20000" />
</g>
<g>
<path d="M 1041,256 L 1079,265 L 1079,295 L 1041,304 Z" stroke="#000000" stroke-width="4.0" fill="none"/>
<text text-anchor="start" x="1043.0" y="275.5" fill="#808080" style="font-size:18px">0</text>
<circle cx="1060.0" cy="300.0" r="2.0" stroke="#0000b2" stroke-width="4.0" fill="#0000b2" />
<circle cx="1040.0" cy="260.0" r="2.0" stroke="#0000b2" stroke-width="4.0" fill="#0000b2" />
<circle cx="1040.0" cy="300.0" r="2.0" stroke="#0000b2" stroke-width="4.0" fill="#0000b2" />
<circle cx="1080.0" cy="280.0" r="2.0" stroke="#b20000" stroke-width="4.0" fill="#b20000" />
</g>
<g>
<path d="M 1041,336 L 1079,345 L 1079,375 L 1041,384 Z" stroke="#000000" stroke-width="4.0" fill="none"/>
<text text-anchor="start" x="1043.0" y="355.5" fill="#808080" style="font-size:18px">0</text>
<circle cx="1060.0" cy="380.0" r="2.0" stroke="#0000b2" stroke-width="4.0" fill="#0000b2" />
<circle cx="1040.0" cy="340.0" r="2.0" stroke="#0000b2" stroke-width="4.0" fill="#0000b2" />
<circle cx="1040.0" cy="380.0" r="2.0" stroke="#0000b2" stroke-width="4.0" fill="#0000b2" />
<circle cx="1080.0" cy="360.0" r="2.0" stroke="#b20000" stroke-width="4.0" fill="#b20000" />
</g>
<g>
<path d="M 1041,416 L 1079,425 L 1079,455 L 1041,464 Z" stroke="#000000" stroke-width="4.0" fill="none"/>
<text text-anchor="start" x="1043.0" y="435.5" fill="#808080" style="font-size:18px">0</text>
<circle cx="1060.0" cy="460.0" r="2.0" stroke="#0000b2" stroke-width="4.0" fill="#0000b2" />
<circle cx="1040.0" cy="420.0" r="2.0" stroke="#0000b2" stroke-width="4.0" fill="#0000b2" />
<circle cx="1040.0" cy="460.0" r="2.0" stroke="#0000b2" stroke-width="4.0" fill="#0000b2" />
<circle cx="1080.0" cy="440.0" r="2.0" stroke="#b20000" stroke-width="4.0" fill="#b20000" />
</g>
<g>
<path d="M 1041,496 L 1079,505 L 1079,535 L 1041,544 Z" stroke="#000000" stroke-width="4.0" fill="none"/>
<text text-anchor="start" x="1043.0" y="515.5" fill="#808080" style="font-size:18px">0</text>
<circle cx="1060.0" cy="540.0" r="2.0" stroke="#0000b2" stroke-width="4.0" fill="#0000b2" />
<circle cx="1040.0" cy="500.0" r="2.0" stroke="#0000b2" stroke-width="4.0" fill="#0000b2" />
<circle cx="1040.0" cy="540.0" r="2.0" stroke="#0000b2" stroke-width="4.0" fill="#0000b2" />
<circle cx="1080.0" cy="520.0" r="2.0" stroke="#b20000" stroke-width="4.0" fill="#b20000" />
</g>
<g>
<path d="M 1041,576 L 1079,585 L 1079,615 L 1041,624 Z" stroke="#000000" stroke-width="4.0" fill="none"/>
<text text-anchor="start" x="1043.0" y="595.5" fill="#808080" style="font-size:18px">0</text>
<circle cx="1060.0" cy="620.0" r="2.0" stroke="#0000b2" stroke-width="4.0" fill="#0000b2" />
<circle cx="1040.0" cy="580.0" r="2.0" stroke="#0000b2" stroke-width="4.0" fill="#0000b2" />
<circle cx="1040.0" cy="620.0" r="2.0" stroke="#0000b2" stroke-width="4.0" fill="#0000b2" />
<circle cx="1080.0" cy="600.0" r="2.0" stroke="#b20000" stroke-width="4.0" fill="#b20000" />
</g>
<g>
<path d="M 1041,656 L 1079,665 L 1079,695 L 1041,704 Z" stroke="#000000" stroke-width="4.0" fill="none"/>
<text text-anchor="start" x="1043.0" y="675.5" fill="#808080" style="font-size:18px">0</text>
<circle cx="1060.0" cy="700.0" r="2.0" stroke="#0000b2" stroke-width="4.0" fill="#0000b2" />
<circle cx="1040.0" cy="660.0" r="2.0" stroke="#0000b2" stroke-width="4.0" fill="#0000b2" />
<circle cx="1040.0" cy="700.0" r="2.0" stroke="#0000b2" stroke-width="4.0" fill="#0000b2" />
<circle cx="1080.0" cy="680.0" r="2.0" stroke="#b20000" stroke-width="4.0" fill="#b20000" />
</g>
<g>
<path d="M 1041,736 L 1079,745 L 1079,775 L 1041,784 Z" stroke="#000000" stroke-width="4.0" fill="none"/>
<text text-anchor="start" x="1043.0" y="755.5" fill="#808080" style="font-size:18px">0</text>
<circle cx="1060.0" cy="780.0" r="2.0" stroke="#0000b2" stroke-width="4.0" fill="#0000b2" />
<circle cx="1040.0" cy="740.0" r="2.0" stroke="#0000b2" stroke-width="4.0" fill="#0000b2" />
<circle cx="1040.0" cy="780.0" r="2.0" stroke="#0000b2" stroke-width="4.0" fill="#0000b2" />
<circle cx="1080.0" cy="760.0" r="2.0" stroke="#b20000" stroke-width="4.0" fill="#b20000" />
</g>
<g>
<path d="M 1041,816 L 1079,825 L 1079,855 L 1041,864 Z" stroke="#000000" stroke-width="4.0" fill="none"/>
<text text-anchor="start" x="1043.0" y="835.5" fill="#808080" style="font-size:18px">0</text>
<circle cx="1060.0" cy="860.0" r="2.0" stroke="#0000b2" stroke-width="4.0" fill="#0000b2" />
<circle cx="1040.0" cy="820.0" r="2.0" stroke="#0000b2" stroke-width="4.0" fill="#0000b2" />
<circle cx="1040.0" cy="860.0" r="2.0" stroke="#0000b2" stroke-width="4.0" fill="#0000b2" />
<circle cx="1080.0" cy="840.0" r="2.0" stroke="#b20000" stroke-width="4.0" fill="#b20000" />
</g>
<g>
<path d="M 1041,896 L 1079,905 L 1079,935 L 1041,944 Z" stroke="#000000" stroke-width="4.0" fill="none"/>
<text text-anchor="start" x="1043.0" y="915.5" fill="#808080" style="font-size:18px">0</text>
<circle cx="1060.0" cy="940.0" r="2.0" stroke="#0000b2" stroke-width="4.0" fill="#0000b2" />
<circle cx="1040.0" cy="900.0" r="2.0" stroke="#0000b2" stroke-width="4.0" fill="#0000b2" />
<circle cx="1040.0" cy="940.0" r="2.0" stroke="#0000b2" stroke-width="4.0" fill="#0000b2" />
<circle cx="1080.0" cy="920.0" r="2.0" stroke="#b20000" stroke-width="4.0" fill="#b20000" />
</g>
<g>
<path d="M 1041,976 L 1079,985 L 1079,1015 L 1041,1024 Z" stroke="#000000" stroke-width="4.0" fill="none"/>
<text text-anchor="start" x="1043.0" y="995.5" fill="#808080" style="font-size:18px">0</text>
<circle cx="1060.0" cy="1020.0" r="2.0" stroke="#0000b2" stroke-width="4.0" fill="#0000b2" />
<circle cx="1040.0" cy="980.0" r="2.0" stroke="#0000b2" stroke-width="4.0" fill="#0000b2" />
<circle cx="1040.0" cy="1020.0" r="2.0" stroke="#0000b2" stroke-width="4.0" fill="#0000b2" />
<circle cx="1080.0" cy="1000.0" r="2.0" stroke="#b20000" stroke-width="4.0" fill="#b20000" />
</g>
<g>
<path d="M 945,1111 L 945,1081 L 975,1081 L 975,1111 Z" stroke="#000000" stroke-width="4.0" fill="none"/>
<circle cx="960.0" cy="1096.0" r="9.0" stroke="#000000" stroke-width="4.0" fill="none" />
<text text-anchor="end" x="960.0" y="1134.0" fill="#000000" style="font-size:24px" transform="rotate(-90,960.0,1125.0)" ><tspan style="font-style:italic;">sel</tspan></text>
<circle cx="960.0" cy="1080.0" r="2.0" stroke="#b20000" stroke-width="4.0" fill="#b20000" />
</g>
</g>
</svg>